# xmcd
#
# Track frame offsets: 
#        160
#        21070
#        39512
#        57790
#        82670
#        100225
#        114515
#        126772
#        145535
#        164347
#        180980
#
# Disc length: 2710 seconds
#
# Revision: 4
# Processed by: cddbd v1.5.1PL2 Copyright (c) Steve Scherf et al.
# Submitted via: ExactAudioCopy v0.95b3
#
DISCID=7b0a940b
DTITLE=Александр Розенбаум - На плантациях любви
DYEAR=1996
DGENRE=
TTITLE0=Воскресение
TTITLE1=Где-нибудь, как-нибудь
TTITLE2=Не хочу стареть
TTITLE3=На плантациях любви
TTITLE4=Ветер-конокрад
TTITLE5=Необычно, незнакомо
TTITLE6=Одинокий волк
TTITLE7=Мой брат
TTITLE8=Афганская вьюга
TTITLE9=Перекати-поле
TTITLE10=Ау
EXTD=
EXTT0=
EXTT1=
EXTT2=
EXTT3=
EXTT4=
EXTT5=
EXTT6=
EXTT7=
EXTT8=
EXTT9=
EXTT10=
PLAYORDER=
